:version 1.10
:name ASF
:units
  mass 1
  length 1
  angle deg
:documentation
  ASF file generated by Kaydara
:root
  axis xyz
  order  tx ty tz rx ry rz
  position 0 0 0
  orientation 0 0 0
:bonedata
  begin
    id 1
    name SpineDummy
    direction 0.999998 -0.00179978 1.38929e-006
    length 3.60008
    axis 0 0 0 xyz
  end
  begin
    id 2
    name Spine
    direction 0.964365 0.262802 0.0305839
    length 8.13928
    axis 1.33928 -1.75354 15.2838 xyz
    dof rx ry rz
  end
  begin
    id 3
    name Spine1
    direction 0.811168 0.572065 0.12144
    length 7.14954
    axis 2.2224 -6.9761 35.2157 xyz
    dof rx ry rz
  end
  begin
    id 4
    name Neck
    direction 0 0 0
    length 0
    axis 2.2224 -6.9761 35.2157 xyz
    dof rx ry rz
  end
  begin
    id 5
    name HeadDummy
    direction 0.810939 0.572387 0.121455
    length 3.55534
    axis 2.2224 -6.9761 35.2157 xyz
  end
  begin
    id 6
    name Head
    direction 0.998226 -0.000232542 0.0595419
    length 7.35666
    axis -3.03688 -3.41352 -0.0133467 xyz
    dof rx ry rz
  end
  begin
    id 7
    name R_ClavicleDummy
    direction 0.531669 -0.194489 -0.824319
    length 2.49392
    axis 2.2224 -6.9761 35.2157 xyz
  end
  begin
    id 8
    name R_Clavicle
    direction -0.155119 0.0480802 -0.986725
    length 4.485
    axis -54.2764 80.6538 162.779 xyz
    dof rx ry rz
  end
  begin
    id 9
    name R_UpperArm
    direction -0.955567 0.200068 -0.216484
    length 10.1122
    axis -72.9943 12.5026 168.175 xyz
    dof rx ry rz
  end
  begin
    id 10
    name R_Forearm
    direction -0.61433 0.385743 0.688332
    length 9.39148
    axis -117.015 -43.4982 147.875 xyz
    dof rx ry rz
  end
  begin
    id 11
    name R_Hand
    direction -0.699429 0.0170333 0.714499
    length 3.66324
    axis -45.0303 -36.7097 175.478 xyz
    dof rx ry rz
  end
  begin
    id 12
    name L_ClavicleDummy
    direction 0.40287 -0.36502 0.839319
    length 2.49392
    axis 2.2224 -6.9761 35.2157 xyz
  end
  begin
    id 13
    name L_Clavicle
    direction -0.231271 -0.0726419 0.970174
    length 4.485
    axis 18.4357 -75.9711 -162.563 xyz
    dof rx ry rz
  end
  begin
    id 14
    name L_UpperArm
    direction -0.917494 0.144359 0.370629
    length 10.1122
    axis 56.0417 -21.7544 171.058 xyz
    dof rx ry rz
  end
  begin
    id 15
    name L_Forearm
    direction -0.496786 0.615074 -0.612281
    length 9.39148
    axis 89.8094 37.7546 128.927 xyz
    dof rx ry rz
  end
  begin
    id 16
    name L_Hand
    direction -0.409932 0.64962 -0.640274
    length 3.66324
    axis -0.424369 32.133 128.52 xyz
    dof rx ry rz
  end
  begin
    id 17
    name L_ThighDummy
    direction -1.84081e-006 1.87549e-006 1
    length 3.13049
    axis 0 0 0 xyz
  end
  begin
    id 18
    name L_Thigh
    direction -0.947739 0.307978 0.083308
    length 17.9961
    axis 173.219 -4.77873 161.998 xyz
    dof rx ry rz
  end
  begin
    id 19
    name L_Calf
    direction -0.728814 -0.684427 0.0197583
    length 13.3367
    axis 167.331 -1.13214 -136.799 xyz
    dof rx ry rz
  end
  begin
    id 20
    name L_Foot
    direction -0.9028 0.418719 0.0981191
    length 5.8674
    axis 163.436 11.5135 -155.37 xyz
    dof rx ry rz
  end
  begin
    id 21
    name L_Toe0
    direction -0.35341 0.886259 0.299411
    length 4.75286
    axis 169.316 -17.4222 111.74 xyz
    dof rx ry rz
  end
  begin
    id 22
    name R_ThighDummy
    direction 9.32778e-007 -8.82053e-007 -1
    length 3.13049
    axis 0 0 0 xyz
  end
  begin
    id 23
    name R_Thigh
    direction -0.925064 0.37528 -0.0585023
    length 17.9961
    axis -178.698 3.35385 157.919 xyz
    dof rx ry rz
  end
  begin
    id 24
    name R_Calf
    direction -0.68969 -0.718776 -0.0876886
    length 13.3367
    axis -160.504 5.03065 -133.817 xyz
    dof rx ry rz
  end
  begin
    id 25
    name R_Foot
    direction -0.857405 0.418858 -0.299022
    length 5.8674
    axis -161.328 4.38911 -154.413 xyz
    dof rx ry rz
  end
  begin
    id 26
    name R_Toe0
    direction -0.100745 0.952789 -0.286433
    length 4.75286
    axis 171.683 16.6445 96.0359 xyz
    dof rx ry rz
  end
:hierarchy
  begin
    root SpineDummy L_ThighDummy R_ThighDummy
    SpineDummy Spine
    Spine Spine1
    Spine1 Neck
    Neck HeadDummy R_ClavicleDummy L_ClavicleDummy
    HeadDummy Head
    R_ClavicleDummy R_Clavicle
    R_Clavicle R_UpperArm
    R_UpperArm R_Forearm
    R_Forearm R_Hand
    L_ClavicleDummy L_Clavicle
    L_Clavicle L_UpperArm
    L_UpperArm L_Forearm
    L_Forearm L_Hand
    L_ThighDummy L_Thigh
    L_Thigh L_Calf
    L_Calf L_Foot
    L_Foot L_Toe0
    R_ThighDummy R_Thigh
    R_Thigh R_Calf
    R_Calf R_Foot
    R_Foot R_Toe0
  end

:SAMPLES-PER-SECOND 30
:FULLY-SPECIFIED
:DEGREES
77
root  0.103778 31.2097 -6.81385 -35.6798 -1.6775 87.9785
Spine  6.19468 18.376 -0.490296
Spine1  3.81061 -13.6358 -5.52273
Neck  3.97569e-016 0 -2.38542e-015
Head  -11.6334 -7.89292 24.657
R_Clavicle  1.31529 6.64804 5.70776
R_UpperArm  27.9076 39.8738 18.5629
R_Forearm  8.36904 -30.0305 22.0121
R_Hand  -0.630388 6.89565 -15.6647
L_Clavicle  -0.408401 7.16599 2.66234
L_UpperArm  -30.7466 -9.29081 47.8593
L_Forearm  3.42915 31.8066 40.3593
L_Hand  -0.185603 -1.58639 -5.44932
L_Thigh  -9.91732 -2.22059 16.8601
L_Calf  -2.56168 -3.84588 29.4213
L_Foot  -0.030184 11.7449 -9.68889
L_Toe0  0.505156 0.034446 -6.1361
R_Thigh  -5.04176 11.8137 -18.7809
R_Calf  0.340666 6.61091 21.0761
R_Foot  -3.6491 -3.50387 16.9979
R_Toe0  -1.51976 -0.193097 -14.5602
78
root  0.120471 31.2621 -6.52868 -33.4115 3.20293 85.0399
Spine  5.78815 12.6847 1.80298
Spine1  4.28368 -15.2162 -5.88543
Neck  3.97569e-016 0 -2.38542e-015
Head  -8.83915 -8.21337 27.5946
R_Clavicle  1.03954 4.1165 4.82946
R_UpperArm  27.2722 33.9346 23.3252
R_Forearm  8.92953 -30.476 21.7347
R_Hand  -0.391369 6.19477 -13.2647
L_Clavicle  -0.405976 6.23335 2.67717
L_UpperArm  -29.3012 -3.99118 44.6012
L_Forearm  1.63888 30.4058 39.2135
L_Hand  -0.195157 0.374193 -3.54123
L_Thigh  -13.2923 -7.18823 16.059
L_Calf  -1.38503 -3.37836 25.3831
L_Foot  0.165124 11.0969 -8.66305
L_Toe0  0.505156 0.034446 -6.1361
R_Thigh  -3.74886 7.20284 -12.5896
R_Calf  1.54987 3.2574 10.1787
R_Foot  -1.96391 -1.84768 10.1639
R_Toe0  -0.404203 0.031898 -2.18259
79
root  -0.00849316 31.3442 -6.25443 -31.0068 8.54129 81.3245
Spine  4.13421 5.74302 4.24759
Spine1  3.79464 -15.4454 -5.11412
Neck  3.97569e-016 0 -2.38542e-015
Head  -6.08887 -8.44411 29.1521
R_Clavicle  0.717355 1.54136 3.55868
R_UpperArm  18.7553 26.7493 26.4839
R_Forearm  18.0551 -26.0715 20.6887
R_Hand  -0.318398 5.52671 -12.1786
L_Clavicle  -0.274857 6.01837 1.22889
L_UpperArm  -25.8558 2.29376 43.0426
L_Forearm  -1.86668 29.3522 37.9721
L_Hand  -0.091234 3.64797 -1.02863
L_Thigh  -16.9176 -12.7753 14.0756
L_Calf  -0.721156 -2.69279 20.1163
L_Foot  0.382767 11.3721 -8.07608
L_Toe0  0.505156 0.034446 -6.1361
R_Thigh  -3.06434 1.23241 -5.82424
R_Calf  3.35477 -0.367502 -1.10338
R_Foot  0.0630473 -1.07975 -2.49107
R_Toe0  2.38563 -0.710229 11.7053
80
root  -0.215043 31.1066 -6.14039 -28.0435 11.8239 78.7482
Spine  2.49628 2.59662 5.7697
Spine1  2.48454 -16.4059 -1.9244
Neck  3.97569e-016 0 -2.38542e-015
Head  -3.67444 -7.95407 29.0432
R_Clavicle  0.477443 -1.09656 2.44342
R_UpperArm  12.2637 20.0272 28.4442
R_Forearm  22.6035 -20.0351 17.8941
R_Hand  -0.349443 4.64751 -11.8218
L_Clavicle  -0.200334 7.13676 0.0179614
L_UpperArm  -23.1021 5.88009 40.9799
L_Forearm  -0.523467 29.3164 37.6564
L_Hand  -0.0833414 5.44087 -0.707668
L_Thigh  -17.6723 -15.9574 11.3917
L_Calf  -0.0559979 -1.84409 13.7906
L_Foot  0.791605 11.1437 -6.50987
L_Toe0  0.490633 0.0345595 -6.14897
R_Thigh  -2.28624 -1.51651 -0.326326
R_Calf  8.2435 -3.61699 -11.332
R_Foot  0.135919 -4.47988 -9.47798
R_Toe0  6.40891 -2.48831 3.09641
81
root  -0.470314 30.4605 -6.19607 -24.2212 13.2663 78.1319
Spine  1.49295 2.75115 5.76184
Spine1  0.988345 -17.7488 1.83101
Neck  3.97569e-016 0 -2.38542e-015
Head  -2.1547 -6.72378 29.0092
R_Clavicle  0.342826 -5.27183 1.61875
R_UpperArm  11.9918 14.432 30.3612
R_Forearm  18.7498 -13.8984 11.8365
R_Hand  -0.409086 3.70911 -11.6524
L_Clavicle  -0.30948 9.89581 0.534269
L_UpperArm  -21.5751 6.28444 37.861
L_Forearm  3.80846 30.3618 38.1326
L_Hand  -0.261748 5.13169 -2.58971
L_Thigh  -16.3324 -16.595 8.61628
L_Calf  2.83158 -1.21802 9.21791
L_Foot  2.13929 10.436 -1.44458
L_Toe0  0.645541 0.0333494 -6.01173
R_Thigh  -0.230058 -0.99413 4.42457
R_Calf  12.7937 -7.085 -22.6787
R_Foot  -0.197376 -4.50841 -7.07831
R_Toe0  2.82423 -0.333924 -16.0831
82
root  -0.659895 29.5938 -6.29896 -19.4299 14.9394 78.4422
Spine  0.305996 2.13017 5.38759
Spine1  -0.319185 -17.4998 3.89445
Neck  3.97569e-016 0 -2.38542e-015
Head  -1.58639 -5.31254 29.7569
R_Clavicle  0.326688 -11.3801 1.16831
R_UpperArm  10.3322 10.4335 32.8206
R_Forearm  14.9787 -5.72927 4.75337
R_Hand  -0.453508 3.48962 -11.9512
L_Clavicle  -0.434702 13.5642 2.43621
L_UpperArm  -22.1051 6.07011 34.811
L_Forearm  7.18475 32.067 39.163
L_Hand  -0.373554 3.79093 -4.41238
L_Thigh  -15.3084 -17.6374 7.72076
L_Calf  7.10695 -0.770219 6.06073
L_Foot  5.11794 12.0752 6.91499
L_Toe0  1.04248 0.0302478 -5.66007
R_Thigh  2.97574 -0.55239 8.56681
R_Calf  13.1893 -10.1819 -33.836
R_Foot  -0.160986 -1.77174 -2.67153
R_Toe0  -2.20801 -0.253711 -17.5661
83
root  -0.66842 28.7397 -6.40298 -14.2119 17.3319 78.7825
Spine  -1.14627 -0.346664 5.75685
Spine1  -1.23463 -15.4029 4.84145
Neck  3.97569e-016 0 -2.38542e-015
Head  -2.08629 -3.90542 29.8546
R_Clavicle  0.382533 -17.1364 1.31183
R_UpperArm  8.59305 7.05633 34.1545
R_Forearm  10.4219 3.43198 -2.88741
R_Hand  -0.478394 3.99692 -12.6305
L_Clavicle  -0.449951 15.9976 4.04746
L_UpperArm  -26.4877 8.01668 31.4483
L_Forearm  9.73121 33.7332 41.3349
L_Hand  -0.367535 2.78268 -4.90217
L_Thigh  -15.1809 -20.243 10.1947
L_Calf  10.1581 -0.0311236 1.05187
L_Foot  7.8489 15.4547 11.8847
L_Toe0  0.461588 0.0347863 -6.17469
R_Thigh  6.31874 -1.79002 11.4683
R_Calf  10.1999 -12.4758 -43.2953
R_Foot  0.352313 1.12943 -0.286981
R_Toe0  -1.78853 -0.272788 -17.3235
84
root  -0.501994 28.1672 -6.60886 -10.2314 18.7205 79.3294
Spine  -1.57773 -2.04152 6.46787
Spine1  -1.31464 -13.4825 6.25976
Neck  3.97569e-016 0 -2.38542e-015
Head  -4.0975 -2.27049 28.7765
R_Clavicle  0.410789 -19.779 1.659
R_UpperArm  8.00649 2.92925 31.4314
R_Forearm  2.5501 10.9438 -9.27757
R_Hand  -0.508348 4.62527 -13.3787
L_Clavicle  -0.44945 16.2105 4.46707
L_UpperArm  -31.9293 11.4537 26.9268
L_Forearm  11.6122 34.7513 44.7853
L_Hand  -0.31665 2.48569 -4.36291
L_Thigh  -13.9843 -22.4495 12.4786
L_Calf  10.4228 0.400694 -2.07277
L_Foot  8.48742 16.0358 13.0598
L_Toe0  0.505156 0.034446 -6.1361
R_Thigh  8.96641 -3.06326 11.9043
R_Calf  7.54069 -13.6731 -48.9298
R_Foot  0.676777 2.58127 0.783952
R_Toe0  -1.78853 -0.272788 -17.3235
85
root  -0.214982 28.131 -7.01179 -9.0547 17.9183 80.5613
Spine  -0.200452 -1.37261 6.70407
Spine1  -0.198062 -13.5942 7.30028
Neck  3.97569e-016 0 -2.38542e-015
Head  -7.43408 -0.248515 28.5179
R_Clavicle  0.408608 -19.4973 1.59575
R_UpperArm  7.59267 -0.402921 24.4645
R_Forearm  -5.34382 14.3275 -12.284
R_Hand  -0.567446 5.56763 -14.5134
L_Clavicle  -0.45661 15.4545 4.14445
L_UpperArm  -33.6683 13.7416 22.9897
L_Forearm  13.0488 35.7631 47.6151
L_Hand  -0.259871 2.76772 -3.4244
L_Thigh  -11.1867 -21.9856 13.9181
L_Calf  8.86637 0.4012 -2.21869
L_Foot  7.08106 13.9913 11.0699
L_Toe0  0.50516 0.034446 -6.1361
R_Thigh  9.90585 -3.08684 9.84692
R_Calf  6.80256 -13.7468 -49.2986
R_Foot  0.675337 2.85659 1.73013
R_Toe0  -1.78853 -0.272788 -17.3235
86
root  0.161215 28.5832 -7.56564 -10.4708 15.6519 82.7312
Spine  2.19822 0.415081 6.58969
Spine1  1.8129 -15.31 6.07933
Neck  3.97569e-016 0 -2.38542e-015
Head  -11.034 2.08779 30.4933
R_Clavicle  0.377432 -17.7998 1.0434
R_UpperArm  5.78725 -0.575007 16.1528
R_Forearm  -6.86653 13.8554 -11.8568
R_Hand  -0.755035 7.15489 -16.7942
L_Clavicle  -0.454573 15.1947 3.58547
L_UpperArm  -31.6821 14.3223 22.5712
L_Forearm  15.7288 36.7607 47.1004
L_Hand  -0.206995 3.386 -2.49951
L_Thigh  -7.17289 -19.5783 14.9115
L_Calf  5.89508 0.0120145 0.541203
L_Foot  5.7575 11.8919 9.1514
L_Toe0  0.505167 0.034446 -6.1361
R_Thigh  8.22233 -3.10123 6.88909
R_Calf  6.91072 -12.8181 -44.8436
R_Foot  0.486004 2.22537 1.69808
R_Toe0  -1.78853 -0.272788 -17.3235
87
root  0.561205 29.1815 -8.18816 -13.2565 12.6354 85.3178
Spine  4.80588 2.25766 6.58772
Spine1  4.24169 -17.1218 3.08197
Neck  3.97569e-016 0 -2.38542e-015
Head  -14.2081 4.42452 33.1121
R_Clavicle  0.311077 -14.5761 0.560252
R_UpperArm  3.07954 1.68058 8.2198
R_Forearm  -2.14186 11.5748 -9.82849
R_Hand  -1.07819 8.56768 -19.548
L_Clavicle  -0.450342 15.4697 2.86298
L_UpperArm  -28.4264 14.8406 25.9599
L_Forearm  18.05 35.0798 42.9499
L_Hand  -0.196204 3.89301 -2.21928
L_Thigh  -2.19698 -16.1911 15.7501
L_Calf  2.03605 -0.491688 4.14362
L_Foot  4.27496 9.21654 7.01623
L_Toe0  0.505172 0.0344461 -6.1361
R_Thigh  4.81424 -4.10251 3.78185
R_Calf  7.36418 -11.043 -37.225
R_Foot  0.265631 1.36864 1.27626
R_Toe0  -1.78853 -0.272788 -17.3235
88
root  0.896349 29.6537 -8.83428 -16.5758 8.60436 87.4741
Spine  7.58959 4.81906 6.71379
Spine1  6.66473 -18.5008 0.559748
Neck  3.97569e-016 0 -2.38542e-015
Head  -17.2908 6.47277 34.296
R_Clavicle  0.251622 -9.17953 0.703912
R_UpperArm  1.98892 4.51429 0.256348
R_Forearm  2.43289 8.72607 -7.35716
R_Hand  -1.15881 8.97259 -20.1822
L_Clavicle  -0.448948 15.6705 2.12793
L_UpperArm  -25.7296 15.948 30.9232
L_Forearm  16.0996 30.1435 38.355
L_Hand  -0.233052 3.99937 -2.62534
L_Thigh  2.73665 -11.3552 16.0319
L_Calf  -1.54767 -0.831683 6.42183
L_Foot  2.69986 5.98422 4.78151
L_Toe0  0.505174 0.0344461 -6.1361
R_Thigh  1.65717 -5.53411 -0.0773485
R_Calf  9.76178 -8.32438 -26.9839
R_Foot  -0.0453365 0.579142 1.91995
R_Toe0  -2.0123 -0.251766 -17.4594
89
root  1.12412 29.8919 -9.43817 -19.8652 3.69576 89.2391
Spine  10.3713 8.5528 6.72797
Spine1  8.75199 -19.5259 -1.019
Neck  3.97569e-016 0 -2.38542e-015
Head  -20.6878 8.16288 34.5485
R_Clavicle  0.275808 -2.57579 1.31082
R_UpperArm  3.31856 7.50384 -7.41956
R_Forearm  3.32834 5.1817 -4.35145
R_Hand  -0.840364 8.49979 -17.7978
L_Clavicle  -0.444743 15.4691 1.67432
L_UpperArm  -27.3538 16.9374 35.9982
L_Forearm  11.4187 26.2089 34.6472
L_Hand  -0.28174 3.96316 -3.22238
L_Thigh  6.54351 -5.19042 16.1618
L_Calf  -3.55378 -0.883475 6.4982
L_Foot  1.78625 3.37987 4.08663
L_Toe0  0.505168 0.0344461 -6.1361
R_Thigh  -0.232358 -6.92336 -4.7244
R_Calf  13.3937 -4.29879 -13.5016
R_Foot  -0.580812 -0.886947 2.5806
R_Toe0  0.166185 -0.458962 -16.133
90
root  1.28097 29.7993 -9.95596 -22.4439 -1.11527 91.1197
Spine  12.5182 12.4206 6.62107
Spine1  10.2842 -19.6464 -3.19328
Neck  3.97569e-016 0 -2.38542e-015
Head  -23.9513 9.28295 35.2358
R_Clavicle  0.421552 3.78702 2.18861
R_UpperArm  5.28074 10.7574 -13.9825
R_Forearm  2.82077 0.69484 -0.607223
R_Hand  -0.523621 7.60659 -15.0594
L_Clavicle  -0.428714 14.5686 1.37618
L_UpperArm  -30.7578 17.6855 41.3978
L_Forearm  5.39052 24.4919 31.7609
L_Hand  -0.322609 4.21958 -3.60355
L_Thigh  9.92351 0.667897 17.4561
L_Calf  -3.80433 -0.578056 3.99676
L_Foot  1.53275 1.4176 5.43816
L_Toe0  0.508915 0.0344648 -6.13823
R_Thigh  -1.159 -8.22113 -9.48266
R_Calf  13.0027 0.4431 1.41898
R_Foot  -0.27723 0.0429677 2.65032
R_Toe0  8.40623 -1.20967 -11.1769
91
root  1.43864 29.2893 -10.4178 -23.905 -5.24105 92.8177
Spine  13.7671 15.3421 6.73636
Spine1  11.0943 -18.4785 -6.11908
Neck  3.97569e-016 0 -2.38542e-015
Head  -26.4171 9.53478 35.4029
R_Clavicle  0.650517 9.90012 2.84342
R_UpperArm  6.40149 14.5375 -19.8129
R_Forearm  3.57924 -4.65652 3.85156
R_Hand  -0.44013 7.1825 -14.2045
L_Clavicle  -0.388426 12.8502 0.946995
L_UpperArm  -33.5675 18.3857 47.083
L_Forearm  0.840938 23.1983 29.6589
L_Hand  -0.335439 4.3043 -3.72045
L_Thigh  13.508 4.9238 20.2737
L_Calf  -3.43347 0.135974 -1.3342
L_Foot  1.96578 0.664157 8.50647
L_Toe0  0.468738 0.0342639 -6.11545
R_Thigh  -1.98324 -9.12134 -14.1344
R_Calf  7.15067 4.08058 12.9372
R_Foot  2.74331 9.70204 6.87083
R_Toe0  6.3565 -0.874236 -12.6235
